{"title":"BBC Proms 2011_15 Hungarian Night with the London Philharmonic","uid":6574249,"size":4842671739,"categoryP":"video","categoryS":"music_videos","magnet":"?xt=urn:btih:fdcec5abdc382291fb69fbc466bd84859e096efc&amp;dn=BBC+Proms+2011_15+Hungarian+Night+with+the+London+Philharmonic&amp;tr=udp%3A%2F%2Ftracker.openbittorrent.com%3A80&amp;tr=udp%3A%2F%2Fopen.demonii.com%3A1337&amp;tr=udp%3A%2F%2Ftracker.coppersurfer.tk%3A6969&amp;tr=udp%3A%2F%2Fexodus.desync.com%3A6969","seeders":1,"leechers":0,"uploader":"Hathor","files":4,"time":1312120834,"description":"BBC Proms 2011, Number 15\nRecorded 26 July\nBroadcast BBC4 TV on 29 July\nThanks to GringoLoco &amp; the BBC\n\nKodÃƒÂ¡ly:\nDances of GalÃƒÂ¡nta (16 mins)\n\nBartÃƒÂ³k:\nPiano Concerto No. 1 (24 mins)\nJean-Efflam Bavouzet: piano\nEncore - Liszt: Harmonies poÃƒÂ©tiques et religieuses, No 1: Invocation\n\nLiszt:\nA Faust Symphony (62 mins)\n\nMarco Jentzsch: tenor\nLondon Philharmonic Choir (men's voices)\nLondon Symphony Chorus (men's voices)\nLondon Philharmonic Orchestra\nVladimir Jurowski: conductor\n\n*****************************************************\n\nFormat: DVD ISO PAL 16:9\nRuntime: 2:05\nCommentary in English\nFixed English subtitles for vocal section\nInterval cut\n\nVideo\nID                               : 224 (0xE0)\nFormat                           : MPEG Video\nFormat version                   : Version 2\nFormat profile                   : Main@Main\nFormat settings, BVOP            : Yes\nFormat settings, Matrix          : Default\nBit rate mode                    : Variable\nBit rate                         : 3 322 Kbps\nNominal bit rate                 : 9 544 Kbps\nWidth                            : 720 pixels\nHeight                           : 576 pixels\nDisplay aspect ratio             : 16:9\nFrame rate                       : 25.000 fps\nStandard                         : PAL\nColor space                      : YUV\nChroma subsampling               : 4:2:0\nBit depth                        : 8 bits\nScan type                        : Interlaced\nScan order                       : Top Field First\nCompression mode                 : Lossy\nBits/(Pixel*Frame)               : 0.320\n\nAudio\nID                               : 192 (0xC0)\nFormat                           : MPEG Audio\nFormat version                   : Version 1\nFormat profile                   : Layer 2\nBit rate mode                    : Constant\nBit rate                         : 256 Kbps\nChannel(s)                       : 2 channels\nSampling rate                    : 48.0 KHz\nCompression mode                 : Lossy\n\n***************************************************\n\nFormat: MP4 468p\nRuntime: 2:18\n\nVideo\nID                               : 1\nFormat                           : AVC\nFormat/Info                      : Advanced Video Codec\nFormat profile                   : &lt;a class=&quot;__cf_email__&quot; href=&quot;/cdn-cgi/l/email-protection&quot; data-cfemail=&quot;3578545c5b7579061b05&quot;&gt;[email&amp;#160;protected]&lt;/a&gt;&lt;script cf-hash='f9e31' type=&quot;text/javascript&quot;&gt;\n/* &lt;![CDATA[ */!function(){try{var t=&quot;currentScript&quot;in document?document.currentScript:function(){for(var t=document.getElementsByTagName(&quot;script&quot;),e=t.length;e--;)if(t[e].getAttribute(&quot;cf-hash&quot;))return t[e]}();if(t&amp;&amp;t.previousSibling){var e,r,n,i,c=t.previousSibling,a=c.getAttribute(&quot;data-cfemail&quot;);if(a){for(e=&quot;&quot;,r=parseInt(a.substr(0,2),16),n=2;a.length-n;n+=2)i=parseInt(a.substr(n,2),16)^r,e+=String.fromCharCode(i);e=document.createTextNode(e),c.parentNode.replaceChild(e,c)}}}catch(u){}}();/* ]]&gt; */&lt;/script&gt;\nFormat settings, CABAC           : Yes\nFormat settings, ReFrames        : 4 frames\nCodec ID                         : avc1\nCodec ID/Info                    : Advanced Video Coding\nDuration                         : 2h 18mn\nBit rate mode                    : Constant\nBit rate                         : 1 213 Kbps\nNominal bit rate                 : 1 404 Kbps\nWidth                            : 832 pixels\nHeight                           : 468 pixels\nDisplay aspect ratio             : 16:9\nFrame rate mode                  : Variable\nFrame rate                       : 21.614 fps\nOriginal frame rate              : 25.000 fps\nMinimum frame rate               : 0.001 fps\nMaximum frame rate               : 25.000 fps\nStandard                         : PAL\nColor space                      : YUV\nChroma subsampling               : 4:2:0\nBit depth                        : 8 bits\nScan type                        : Progressive\nBits/(Pixel*Frame)               : 0.144\nStream size                      : 1.18 GiB (93%)\n\nAudio\nID                               : 2\nFormat                           : AAC\nFormat/Info                      : Advanced Audio Codec\nFormat profile                   : HE-AAC / LC\nCodec ID                         : 40\nDuration                         : 2h 18mn\nBit rate mode                    : Variable\nBit rate                         : 81.9 Kbps\nChannel(s)                       : 2 channels\nChannel positions                : Front: L R\nSampling rate                    : 48.0 KHz / 24.0 KHz\nCompression mode                 : Lossy\nStream size                      : 81.3 MiB (6%)\n\n","torrent":{"xt":"urn:btih:fdcec5abdc382291fb69fbc466bd84859e096efc","amp;dn":"BBC+Proms+2011_15+Hungarian+Night+with+the+London+Philharmonic","amp;tr":["udp%3A%2F%2Ftracker.openbittorrent.com%3A80","udp%3A%2F%2Fopen.demonii.com%3A1337","udp%3A%2F%2Ftracker.coppersurfer.tk%3A6969","udp%3A%2F%2Fexodus.desync.com%3A6969"],"infoHash":"fdcec5abdc382291fb69fbc466bd84859e096efc","infoHashBuffer":{"type":"Buffer","data":[253,206,197,171,220,56,34,145,251,105,251,196,102,189,132,133,158,9,110,252]},"announce":[],"urlList":[]}}